<?xml version="1.0" encoding="UTF-8"?>
<svg version="1.1" xmlns="http://www.w3.org/2000/svg" width="128" height="128">
<path d="M0 0 C3.77831496 0.53975928 4.78369946 1.42622785 7.0625 4.4375 C7.5575 5.7678125 7.5575 5.7678125 8.0625 7.125 C8.7880134 9.54776234 8.7880134 9.54776234 10.6796875 10.0859375 C15.07710149 10.73473629 19.5135188 10.3925151 23.9453125 10.27734375 C27.0625 10.4375 27.0625 10.4375 29.0625 12.4375 C29.1875 15.5625 29.1875 15.5625 29.0625 18.4375 C30.3825 18.4375 31.7025 18.4375 33.0625 18.4375 C33.35125 17.65375 33.64 16.87 33.9375 16.0625 C35.0625 13.4375 35.0625 13.4375 37.0625 11.4375 C42.8431897 10.57039654 47.95984755 12.92288351 53.0625 15.4375 C55.64649406 18.02149406 55.3893593 19.22120365 55.4375 22.8125 C55.33539604 28.01299505 55.33539604 28.01299505 53.375 31.0625 C50.89135783 32.53926021 48.92380829 33.11957686 46.0625 33.4375 C45.73545238 38.12518255 46.28691311 40.63391797 49.0625 44.4375 C49.619375 44.9325 50.17625 45.4275 50.75 45.9375 C52.0625 47.4375 52.0625 47.4375 52.4375 49.9375 C51.99734841 52.87184394 51.41727824 53.69321982 49.0625 55.4375 C47.5775 55.9325 47.5775 55.9325 46.0625 56.4375 C47.031875 57.05625 48.00125 57.675 49 58.3125 C52.0625 60.4375 52.0625 60.4375 53.0625 62.4375 C53.43927003 67.42970285 53.13646361 70.41770143 50.0625 74.4375 C47.35370665 75.79189668 45.05316732 75.50251451 42.0625 75.4375 C42.30419922 76.28441406 42.30419922 76.28441406 42.55078125 77.1484375 C43.08005579 79.51603202 43.22973843 81.63921575 43.25 84.0625 C43.26417969 84.83851562 43.27835937 85.61453125 43.29296875 86.4140625 C43.0625 88.4375 43.0625 88.4375 41.0625 90.4375 C35.39451745 91.23101756 32.41848626 89.81825596 27.95703125 86.62890625 C25.98475113 85.38860638 24.33682599 84.87622807 22.0625 84.4375 C21.96453125 85.04078125 21.8665625 85.6440625 21.765625 86.265625 C21.08556514 89.9004277 20.40284818 92.86571505 18.5 96.0625 C15.28953258 97.8735329 13.25157903 97.81419218 9.6484375 97.26953125 C5.39777447 95.90187079 1.9627532 93.40870692 -1.65234375 90.8359375 C-2.78349609 90.14371094 -2.78349609 90.14371094 -3.9375 89.4375 C-4.9275 89.9325 -4.9275 89.9325 -5.9375 90.4375 C-7.8125 90.640625 -7.8125 90.640625 -9.9375 90.6875 C-10.63875 90.71328125 -11.34 90.7390625 -12.0625 90.765625 C-12.68125 90.65734375 -13.3 90.5490625 -13.9375 90.4375 C-14.5975 89.4475 -15.2575 88.4575 -15.9375 87.4375 C-16.55625 89.29375 -16.55625 89.29375 -17.1875 91.1875 C-18.57505046 94.77730946 -19.58005067 97.31700569 -22.9375 99.4375 C-28.02620045 100.49345563 -31.93584043 99.79334728 -36.375 97.125 C-39.40868015 95.08416063 -41.58564674 93.18323348 -42.34375 89.421875 C-42.53972927 84.75103579 -42.14059363 82.07115199 -39.0625 78.4375 C-37.36959806 76.67099362 -36.12932428 75.53341214 -33.9375 74.4375 C-31.93789988 74.397508 -29.93702758 74.39403201 -27.9375 74.4375 C-28.7625 73.48875 -29.5875 72.54 -30.4375 71.5625 C-32.9375 68.6875 -32.9375 68.6875 -32.9375 66.4375 C-33.76894531 66.25574219 -34.60039063 66.07398437 -35.45703125 65.88671875 C-36.54371094 65.63535156 -37.63039063 65.38398437 -38.75 65.125 C-39.82894531 64.88136719 -40.90789063 64.63773437 -42.01953125 64.38671875 C-44.91743515 63.44402712 -46.18950561 62.88946483 -47.9375 60.4375 C-48.4375 57.0625 -48.4375 57.0625 -47.9375 53.4375 C-45.51718748 50.37651652 -43.25842335 48.62088477 -39.875 46.6875 C-35.91554977 43.65472961 -34.41036393 40.14200066 -32.9375 35.4375 C-32.9375 34.4475 -32.9375 33.4575 -32.9375 32.4375 C-33.57816406 32.15777344 -34.21882813 31.87804687 -34.87890625 31.58984375 C-41.33099094 28.59938423 -47.63725351 25.03799298 -50.9375 18.4375 C-51.52310917 13.24231011 -51.73824172 8.89599384 -49.1875 4.25 C-44.18344045 1.45927448 -39.53399087 1.76561569 -33.9375 2.4375 C-28.6283704 4.07107834 -25.58722082 7.65069516 -21.96484375 11.6953125 C-19.57432981 13.74958845 -18.04624686 14.14001226 -14.9375 14.4375 C-11.72268155 14.2550397 -11.72268155 14.2550397 -8.9375 12.4375 C-7.89993212 10.19445905 -7.25711695 8.0293877 -6.67578125 5.62890625 C-5.40478074 1.85625393 -3.91845027 0.58359898 0 0 Z " fill="#A30000" transform="translate(61.9375,13.5625)"/>
<path d="M0 0 C3.77831496 0.53975928 4.78369946 1.42622785 7.0625 4.4375 C7.5575 5.7678125 7.5575 5.7678125 8.0625 7.125 C8.7880134 9.54776234 8.7880134 9.54776234 10.6796875 10.0859375 C15.07710149 10.73473629 19.5135188 10.3925151 23.9453125 10.27734375 C27.0625 10.4375 27.0625 10.4375 29.0625 12.4375 C29.1875 15.5625 29.1875 15.5625 29.0625 18.4375 C30.3825 18.4375 31.7025 18.4375 33.0625 18.4375 C33.35125 17.65375 33.64 16.87 33.9375 16.0625 C35.0625 13.4375 35.0625 13.4375 37.0625 11.4375 C42.8431897 10.57039654 47.95984755 12.92288351 53.0625 15.4375 C55.64649406 18.02149406 55.3893593 19.22120365 55.4375 22.8125 C55.33539604 28.01299505 55.33539604 28.01299505 53.375 31.0625 C50.89135783 32.53926021 48.92380829 33.11957686 46.0625 33.4375 C45.73545238 38.12518255 46.28691311 40.63391797 49.0625 44.4375 C49.619375 44.9325 50.17625 45.4275 50.75 45.9375 C52.0625 47.4375 52.0625 47.4375 52.4375 49.9375 C51.99734841 52.87184394 51.41727824 53.69321982 49.0625 55.4375 C47.5775 55.9325 47.5775 55.9325 46.0625 56.4375 C47.031875 57.05625 48.00125 57.675 49 58.3125 C52.0625 60.4375 52.0625 60.4375 53.0625 62.4375 C53.43927003 67.42970285 53.13646361 70.41770143 50.0625 74.4375 C47.35370665 75.79189668 45.05316732 75.50251451 42.0625 75.4375 C42.30419922 76.28441406 42.30419922 76.28441406 42.55078125 77.1484375 C43.08005579 79.51603202 43.22973843 81.63921575 43.25 84.0625 C43.26417969 84.83851562 43.27835937 85.61453125 43.29296875 86.4140625 C43.0625 88.4375 43.0625 88.4375 41.0625 90.4375 C35.39451745 91.23101756 32.41848626 89.81825596 27.95703125 86.62890625 C25.98475113 85.38860638 24.33682599 84.87622807 22.0625 84.4375 C21.96453125 85.04078125 21.8665625 85.6440625 21.765625 86.265625 C21.08556514 89.9004277 20.40284818 92.86571505 18.5 96.0625 C15.28953258 97.8735329 13.25157903 97.81419218 9.6484375 97.26953125 C5.39777447 95.90187079 1.9627532 93.40870692 -1.65234375 90.8359375 C-2.78349609 90.14371094 -2.78349609 90.14371094 -3.9375 89.4375 C-4.9275 89.9325 -4.9275 89.9325 -5.9375 90.4375 C-7.8125 90.640625 -7.8125 90.640625 -9.9375 90.6875 C-10.63875 90.71328125 -11.34 90.7390625 -12.0625 90.765625 C-12.68125 90.65734375 -13.3 90.5490625 -13.9375 90.4375 C-14.5975 89.4475 -15.2575 88.4575 -15.9375 87.4375 C-16.55625 89.29375 -16.55625 89.29375 -17.1875 91.1875 C-18.57505046 94.77730946 -19.58005067 97.31700569 -22.9375 99.4375 C-28.02620045 100.49345563 -31.93584043 99.79334728 -36.375 97.125 C-39.40868015 95.08416063 -41.58564674 93.18323348 -42.34375 89.421875 C-42.53972927 84.75103579 -42.14059363 82.07115199 -39.0625 78.4375 C-37.36959806 76.67099362 -36.12932428 75.53341214 -33.9375 74.4375 C-31.93789988 74.397508 -29.93702758 74.39403201 -27.9375 74.4375 C-28.7625 73.48875 -29.5875 72.54 -30.4375 71.5625 C-32.9375 68.6875 -32.9375 68.6875 -32.9375 66.4375 C-33.76894531 66.25574219 -34.60039063 66.07398437 -35.45703125 65.88671875 C-36.54371094 65.63535156 -37.63039063 65.38398437 -38.75 65.125 C-39.82894531 64.88136719 -40.90789063 64.63773437 -42.01953125 64.38671875 C-44.91743515 63.44402712 -46.18950561 62.88946483 -47.9375 60.4375 C-48.4375 57.0625 -48.4375 57.0625 -47.9375 53.4375 C-45.51718748 50.37651652 -43.25842335 48.62088477 -39.875 46.6875 C-35.91554977 43.65472961 -34.41036393 40.14200066 -32.9375 35.4375 C-32.9375 34.4475 -32.9375 33.4575 -32.9375 32.4375 C-33.57816406 32.15777344 -34.21882813 31.87804687 -34.87890625 31.58984375 C-41.33099094 28.59938423 -47.63725351 25.03799298 -50.9375 18.4375 C-51.52310917 13.24231011 -51.73824172 8.89599384 -49.1875 4.25 C-44.18344045 1.45927448 -39.53399087 1.76561569 -33.9375 2.4375 C-28.6283704 4.07107834 -25.58722082 7.65069516 -21.96484375 11.6953125 C-19.57432981 13.74958845 -18.04624686 14.14001226 -14.9375 14.4375 C-11.72268155 14.2550397 -11.72268155 14.2550397 -8.9375 12.4375 C-7.89993212 10.19445905 -7.25711695 8.0293877 -6.67578125 5.62890625 C-5.40478074 1.85625393 -3.91845027 0.58359898 0 0 Z M-0.9375 6.4375 C-1.16824219 6.96859375 -1.39898437 7.4996875 -1.63671875 8.046875 C-4.0956231 13.37288125 -6.54395934 16.74072967 -11.9375 19.4375 C-17.27762755 19.7876723 -20.61663597 19.91819602 -24.9375 16.4375 C-26.29577971 14.79110035 -27.63004251 13.12454193 -28.9375 11.4375 C-31.89428155 8.81351637 -34.07787495 7.95293779 -38 7.5625 C-38.85722656 7.46195313 -39.71445312 7.36140625 -40.59765625 7.2578125 C-42.98697073 7.24005615 -42.98697073 7.24005615 -44.75 8.71875 C-46.26374442 10.55224475 -46.26374442 10.55224475 -45.875 13.8125 C-44.83945002 17.8166266 -43.74867956 19.4518009 -40.9375 22.4375 C-37.97227817 24.22515504 -37.97227817 24.22515504 -34.75 25.625 C-29.03397059 28.24455882 -29.03397059 28.24455882 -27.9375 30.4375 C-27.39185586 36.766972 -28.22150182 41.20476786 -31.9375 46.4375 C-34.813595 49.39367189 -37.99129119 51.78243236 -41.375 54.125 C-41.890625 54.558125 -42.40625 54.99125 -42.9375 55.4375 C-42.9375 56.4275 -42.9375 57.4175 -42.9375 58.4375 C-41.59945312 58.76621094 -41.59945312 58.76621094 -40.234375 59.1015625 C-29.48772753 62.01309915 -29.48772753 62.01309915 -27.25 65.6875 C-26.816875 66.595 -26.38375 67.5025 -25.9375 68.4375 C-25.2775 68.4375 -24.6175 68.4375 -23.9375 68.4375 C-23.77894531 69.06398437 -23.62039062 69.69046875 -23.45703125 70.3359375 C-22.17293188 75.504114 -22.17293188 75.504114 -18.4375 78.9375 C-17.6125 79.1025 -16.7875 79.2675 -15.9375 79.4375 C-14.4525 79.9325 -14.4525 79.9325 -12.9375 80.4375 C-12.60416667 81.77083333 -12.27083333 83.10416667 -11.9375 84.4375 C-10.9475 84.7675 -9.9575 85.0975 -8.9375 85.4375 C-7.9475 84.7775 -6.9575 84.1175 -5.9375 83.4375 C-0.6604751 83.77599337 2.52952651 86.80955027 6.5625 89.94140625 C9.35049456 91.60984674 10.87376674 91.75067916 14.0625 91.4375 C14.73369549 89.9812455 15.39931807 88.52242133 16.0625 87.0625 C16.43375 86.25039062 16.805 85.43828125 17.1875 84.6015625 C18.18745013 82.51751567 18.18745013 82.51751567 18.0625 80.4375 C26.02725086 79.67491747 31.22964816 81.36686486 38.0625 85.4375 C37.8459375 84.56351563 37.8459375 84.56351563 37.625 83.671875 C36.1101805 76.98142221 35.32483088 70.29348363 36.0625 63.4375 C37.0525 62.4475 37.0525 62.4475 38.0625 61.4375 C38.52133965 59.43644932 38.82069316 57.4423245 39.109375 55.41015625 C40.58099192 52.36439173 43.05325599 51.72085406 46.0625 50.4375 C45.61777344 49.68726563 45.17304687 48.93703125 44.71484375 48.1640625 C40.82221296 41.12363233 39.1361231 36.35315781 41.0625 28.4375 C40.08410156 28.05658203 40.08410156 28.05658203 39.0859375 27.66796875 C37.28096703 26.95716179 35.4803069 26.23533416 33.68359375 25.50390625 C31.63094511 24.66877498 29.56739022 23.86044008 27.5 23.0625 C25.0625 21.4375 25.0625 21.4375 24.1875 18.25 C24.14625 17.321875 24.105 16.39375 24.0625 15.4375 C22.144375 15.7778125 22.144375 15.7778125 20.1875 16.125 C14.77268807 16.69903861 9.87645497 16.1030047 5.0625 13.4375 C3.32423812 11.07618642 2.82627153 9.3289208 2.0625 6.4375 C1.0725 6.4375 0.0825 6.4375 -0.9375 6.4375 Z " fill="#030000" transform="translate(61.9375,13.5625)"/>
<path d="M0 0 C2.9375 2.125 2.9375 2.125 5 5 C5 8.29129772 4.5722957 10.14155645 2.75 12.875 C0.2152479 14.50448349 -1.02637036 14.55323342 -4 14 C-7.375 11.875 -7.375 11.875 -10 9 C-10.06624009 5.68799556 -9.57483317 3.90763132 -7.8125 1.125 C-5.00893449 -0.61514411 -3.23330397 -0.51732864 0 0 Z " fill="#9E0000" transform="translate(35,94)"/>
<path d="M0 0 C1.99609375 0.26953125 1.99609375 0.26953125 4.4375 0.8125 C5.64212891 1.06966797 5.64212891 1.06966797 6.87109375 1.33203125 C9 2 9 2 11 4 C11.125 7.125 11.125 7.125 11 10 C7.95016004 11.52491998 5.3576631 11.23562548 2 11 C0.0625 9.9375 0.0625 9.9375 -1 8 C-1.25 4.375 -1.25 4.375 -1 1 C-0.67 0.67 -0.34 0.34 0 0 Z " fill="#960000" transform="translate(101,30)"/>
<path d="M0 0 C2.31 0 4.62 0 7 0 C7 1.98 7 3.96 7 6 C5.00045254 6.04254356 2.99958364 6.04080783 1 6 C0 5 0 5 -0.0625 2.4375 C-0.041875 1.633125 -0.02125 0.82875 0 0 Z " fill="#9E0000" transform="translate(102,77)"/>
<path d="M0 0 C3.96 0 7.92 0 12 0 C12 1.32 12 2.64 12 4 C11.34 4 10.68 4 10 4 C9.67 4.66 9.34 5.32 9 6 C9 4.35 9 2.7 9 1 C6.69 1 4.38 1 2 1 C1.67 2.32 1.34 3.64 1 5 C0.67 3.35 0.34 1.7 0 0 Z " fill="#1E0000" transform="translate(100,76)"/>
</svg>
