<?xml version="1.0" encoding="UTF-8"?>
<svg version="1.1" xmlns="http://www.w3.org/2000/svg" width="128" height="128">
<path d="M0 0 C3.125 0.5625 3.125 0.5625 5.125 2.5625 C5.125 3.8825 5.125 5.2025 5.125 6.5625 C6.24261719 6.45615234 6.24261719 6.45615234 7.3828125 6.34765625 C10.84079932 6.61858114 11.61491943 7.54307965 14 10 C22.90609274 18.3467018 34.09598623 23.75789617 45.02172852 29 C47.75833179 30.32014267 49.9591696 31.3966696 52.125 33.5625 C53.13033284 40.11674786 51.63825089 46.28925826 49.8984375 52.578125 C49.18907252 55.31527066 48.75646825 57.95256614 48.375 60.75 C47.47630345 65.98855595 45.67677921 70.72108801 43.6875 75.625 C43.38682617 76.37612061 43.08615234 77.12724121 42.77636719 77.90112305 C41.2558323 81.51673662 40.45790383 83.34056411 37.125 85.5625 C35.805 85.5625 34.485 85.5625 33.125 85.5625 C31.59990103 87.27096775 31.59990103 87.27096775 30.375 89.5625 C25.60910077 97.16638445 19.79505769 103.59866888 11.125 106.5625 C2.94650309 108.30545836 -6.42355641 108.28226831 -13.84765625 104.03125 C-29.76845234 92.49710871 -37.9841297 73.94079882 -42.22265625 55.28125 C-42.84630793 52.68207893 -43.62122872 50.21028836 -44.5 47.6875 C-46.24338974 42.58511851 -46.95411227 37.75847705 -47.1875 32.375 C-47.22488281 31.53582031 -47.26226562 30.69664063 -47.30078125 29.83203125 C-46.875 27.5625 -46.875 27.5625 -45.32421875 25.9921875 C-42.08899835 24.10368564 -38.76867536 22.45322378 -35.375 20.875 C-34.71113281 20.55466797 -34.04726563 20.23433594 -33.36328125 19.90429688 C-29.89236216 18.27968505 -27.7749004 17.5625 -23.875 17.5625 C-23.545 16.5725 -23.215 15.5825 -22.875 14.5625 C-20.65234375 12.984375 -20.65234375 12.984375 -17.8125 11.3125 C-14.02412369 9.01398966 -10.80581671 6.70583033 -7.625 3.625 C-4.75475591 0.99098999 -4.06910302 0.59067624 0 0 Z " fill="#090000" transform="translate(60.875,9.4375)"/>
<path d="M0 0 C11.22 0 22.44 0 34 0 C34 15.51 34 31.02 34 47 C24.52818029 45.42136338 18.72933522 40.70030616 12.984375 33.10546875 C7.07687696 23.8604669 0 11.19154672 0 0 Z " fill="#FB5C5A" transform="translate(25,64)"/>
<path d="M0 0 C9.4453125 6.296875 9.4453125 6.296875 13.5625 9.375 C21.59683328 15.04703718 30.81542225 19.50026728 40 23 C39.88260541 24.47978969 39.75553868 25.95881184 39.625 27.4375 C39.55539063 28.26121094 39.48578125 29.08492187 39.4140625 29.93359375 C38.86516499 33.99854231 37.88981413 37.99583641 37 42 C24.79 42 12.58 42 0 42 C0 28.14 0 14.28 0 0 Z " fill="#FB5A58" transform="translate(68,22)"/>
<path d="M0 0 C0.66 0 1.32 0 2 0 C3.48046875 1.50390625 3.48046875 1.50390625 5.1875 3.5625 C7.53279758 6.3253868 9.90829405 8.96679757 12.5 11.5 C15.01500769 13.99224743 17.48087013 16.51588704 19.875 19.125 C20.73738281 20.05699219 20.73738281 20.05699219 21.6171875 21.0078125 C23.32778812 23.47223712 23.89592721 24.99093887 24 28 C20.60438639 34.64611553 14.94323691 41.84179154 8 45 C5.36 45.33 2.72 45.66 0 46 C0 30.82 0 15.64 0 0 Z " fill="#FA5A58" transform="translate(65,65)"/>
<path d="M0 0 C1.67578125 1.6015625 1.67578125 1.6015625 3.3125 3.625 C5.61097978 6.37925509 7.93159879 8.99508736 10.5 11.5 C14.18833327 15.13815186 17.87105996 18.86295162 21 23 C21 23.66 21 24.32 21 25 C9.12 25 -2.76 25 -15 25 C-18.375 16 -18.375 16 -18.6875 11 C-18.75324219 10.05125 -18.81898437 9.1025 -18.88671875 8.125 C-18.92410156 7.42375 -18.96148438 6.7225 -19 6 C-16.58967749 4.79783666 -14.17316521 3.61325022 -11.75 2.4375 C-11.06808594 2.09525391 -10.38617188 1.75300781 -9.68359375 1.40039062 C-3.8348399 -1.41041827 -3.8348399 -1.41041827 0 0 Z " fill="#FA5A58" transform="translate(38,34)"/>
<path d="M0 0 C0 11.22 0 22.44 0 34 C-4.44995099 30.1857563 -8.71399787 26.4668442 -12.875 22.375 C-13.82117187 21.45460938 -14.76734375 20.53421875 -15.7421875 19.5859375 C-17.81744408 17.20908654 -18.66831413 16.07169955 -19 13 C-17.23174858 11.85018626 -15.46030479 10.70528078 -13.6875 9.5625 C-12.20830078 8.60537109 -12.20830078 8.60537109 -10.69921875 7.62890625 C-8 6 -8 6 -5 5 C-5 4.34 -5 3.68 -5 3 C-1.42307692 0 -1.42307692 0 0 0 Z " fill="#FB5654" transform="translate(61,15)"/>
<path d="M0 0 C9.24 0 18.48 0 28 0 C25.9002084 8.39916641 24.44961932 14.03537846 20 21 C15.09312847 17.0060348 10.55729437 12.6959047 6.0625 8.25 C5.47057861 7.67096924 4.87865723 7.09193848 4.26879883 6.49536133 C2.80590875 5.03589071 1.39785485 3.52187506 0 2 C0 1.34 0 0.68 0 0 Z " fill="#FB5A58" transform="translate(76,68)"/>
<path d="M0 0 C0.66 0 1.32 0 2 0 C3.2890625 1.53125 3.2890625 1.53125 4.625 3.5 C5.07101563 4.1496875 5.51703125 4.799375 5.9765625 5.46875 C6.31429687 5.9740625 6.65203125 6.479375 7 7 C5.68 7 4.36 7 3 7 C3 18.88 3 30.76 3 43 C4.98 43 6.96 43 9 43 C8.67 43.66 8.34 44.32 8 45 C5.36 45.33 2.72 45.66 0 46 C0 30.82 0 15.64 0 0 Z " fill="#E94043" transform="translate(65,65)"/>
<path d="M0 0 C1.32 0.33 2.64 0.66 4 1 C4 3.64 4 6.28 4 9 C14.89 8.67 25.78 8.34 37 8 C37.66 9.32 38.32 10.64 39 12 C27.12 12 15.24 12 3 12 C0 4 0 4 0 0 Z " fill="#E5403A" transform="translate(20,47)"/>
<path d="M0 0 C9.24 0 18.48 0 28 0 C27.01 3.96 26.02 7.92 25 12 C24.67 12 24.34 12 24 12 C24 8.37 24 4.74 24 1 C17.4 1 10.8 1 4 1 C3.67 2.32 3.34 3.64 3 5 C1.5 3.625 1.5 3.625 0 2 C0 1.34 0 0.68 0 0 Z " fill="#F44745" transform="translate(76,68)"/>
<path d="M0 0 C1.32 0.33 2.64 0.66 4 1 C4 4.3 4 7.6 4 11 C3.34 11 2.68 11 2 11 C0.80712589 7.12315913 0 4.08378077 0 0 Z " fill="#F74645" transform="translate(20,47)"/>
<path d="M0 0 C1.83600745 1.14154359 3.66874805 2.28834316 5.5 3.4375 C6.5209375 4.07558594 7.541875 4.71367188 8.59375 5.37109375 C9.3878125 5.90863281 10.181875 6.44617187 11 7 C11 7.33 11 7.66 11 8 C8.69 8 6.38 8 4 8 C4 6.68 4 5.36 4 4 C2.68 4 1.36 4 0 4 C0 2.68 0 1.36 0 0 Z " fill="#F64745" transform="translate(76,28)"/>
<path d="M0 0 C0.33 0.99 0.66 1.98 1 3 C0.01 3.495 0.01 3.495 -1 4 C-1 4.66 -1 5.32 -1 6 C-0.34 6.33 0.32 6.66 1 7 C0.67 8.32 0.34 9.64 0 11 C-5 5.25 -5 5.25 -5 3 C-2.5 1.375 -2.5 1.375 0 0 Z " fill="#ED423F" transform="translate(47,25)"/>
<path d="M0 0 C1.32 0.33 2.64 0.66 4 1 C2.515 6.445 2.515 6.445 1 12 C0.67 12 0.34 12 0 12 C0 8.04 0 4.08 0 0 Z " fill="#EB3E3B" transform="translate(100,68)"/>
<path d="M0 0 C1.32 0 2.64 0 4 0 C4 2.64 4 5.28 4 8 C1.84622436 5.37801226 0.59927826 3.35595828 0 0 Z " fill="#F94B49" transform="translate(32,84)"/>
<path d="M0 0 C0.99 0 1.98 0 3 0 C2.34 3.3 1.68 6.6 1 10 C0.67 10 0.34 10 0 10 C0 6.7 0 3.4 0 0 Z " fill="#F54644" transform="translate(104,52)"/>
<path d="M0 0 C2.64 0 5.28 0 8 0 C8 0.99 8 1.98 8 3 C2.25 2.25 2.25 2.25 0 0 Z " fill="#F8413F" transform="translate(51,108)"/>
<path d="M0 0 C1.32 0.33 2.64 0.66 4 1 C2.515 4.465 2.515 4.465 1 8 C0.67 8 0.34 8 0 8 C0 5.36 0 2.72 0 0 Z " fill="#FC4D4B" transform="translate(96,80)"/>
<path d="M0 0 C1.32 0.33 2.64 0.66 4 1 C4 3.64 4 6.28 4 9 C2.00902154 6.01353231 1.05875074 3.40312738 0 0 Z " fill="#F54647" transform="translate(28,75)"/>
<path d="M0 0 C0.86625 0.3403125 0.86625 0.3403125 1.75 0.6875 C1.75 1.3475 1.75 2.0075 1.75 2.6875 C-0.89 2.6875 -3.53 2.6875 -6.25 2.6875 C-2.80384615 -0.38942308 -2.80384615 -0.38942308 0 0 Z " fill="#F44846" transform="translate(36.25,33.3125)"/>
</svg>
