<?xml version="1.0" encoding="UTF-8"?>
<svg version="1.1" xmlns="http://www.w3.org/2000/svg" width="128" height="128">
<path d="M0 0 C7.94593605 3.56756312 12.05777986 15.71617065 15.9375 23.0625 C20.34205051 31.33009119 24.78638148 39.55202108 29.51171875 47.640625 C34.88165221 57.10902152 34.88165221 57.10902152 34.0625 62.375 C31.50439281 65.19090093 30.01885762 65.37828632 26.171875 65.66796875 C24.71845991 65.64814945 23.26518833 65.61254845 21.8125 65.5625 C21.06742188 65.54896484 20.32234375 65.53542969 19.5546875 65.52148438 C17.72364584 65.48627204 15.89297831 65.43246851 14.0625 65.375 C14.07821045 67.17686768 14.07821045 67.17686768 14.09423828 69.01513672 C14.13037287 73.46172112 14.15337657 77.90829248 14.17236328 82.35498047 C14.18243582 84.28143494 14.19609443 86.20787408 14.21337891 88.13427734 C14.23757241 90.89945252 14.24897036 93.664426 14.2578125 96.4296875 C14.26813507 97.2943161 14.27845764 98.1589447 14.28909302 99.04977417 C14.28949106 101.15953521 14.18515243 103.26880718 14.0625 105.375 C12.0625 107.375 12.0625 107.375 9.44873047 107.60205078 C7.8305542 107.58634033 7.8305542 107.58634033 6.1796875 107.5703125 C4.42978516 107.56064453 4.42978516 107.56064453 2.64453125 107.55078125 C1.42121094 107.53402344 0.19789062 107.51726562 -1.0625 107.5 C-2.29355469 107.49097656 -3.52460937 107.48195313 -4.79296875 107.47265625 C-7.84133815 107.44902548 -10.88932382 107.41608054 -13.9375 107.375 C-13.9375 106.715 -13.9375 106.055 -13.9375 105.375 C-14.5975 105.375 -15.2575 105.375 -15.9375 105.375 C-15.9375 92.175 -15.9375 78.975 -15.9375 65.375 C-21.2175 65.375 -26.4975 65.375 -31.9375 65.375 C-35.9375 62.375 -35.9375 62.375 -36.4453125 59.66796875 C-35.78123547 55.3616846 -34.05033336 52.37777328 -31.8125 48.6875 C-31.03803422 47.37169844 -30.26461947 46.05527777 -29.4921875 44.73828125 C-29.08250732 44.04508789 -28.67282715 43.35189453 -28.25073242 42.63769531 C-24.55246104 36.26558541 -21.12449281 29.73998562 -17.68359375 23.2265625 C-17.13896484 22.20175781 -16.59433594 21.17695313 -16.03320312 20.12109375 C-14.91715788 18.02045735 -13.80789733 15.91620378 -12.70507812 13.80859375 C-5.71821687 0.72998513 -5.71821687 0.72998513 0 0 Z " fill="#F29B62" transform="translate(64.9375,9.625)"/>
<path d="M0 0 C7.94593605 3.56756312 12.05777986 15.71617065 15.9375 23.0625 C20.34205051 31.33009119 24.78638148 39.55202108 29.51171875 47.640625 C34.88165221 57.10902152 34.88165221 57.10902152 34.0625 62.375 C31.50439281 65.19090093 30.01885762 65.37828632 26.171875 65.66796875 C24.71845991 65.64814945 23.26518833 65.61254845 21.8125 65.5625 C21.06742188 65.54896484 20.32234375 65.53542969 19.5546875 65.52148438 C17.72364584 65.48627204 15.89297831 65.43246851 14.0625 65.375 C14.07821045 67.17686768 14.07821045 67.17686768 14.09423828 69.01513672 C14.13037287 73.46172112 14.15337657 77.90829248 14.17236328 82.35498047 C14.18243582 84.28143494 14.19609443 86.20787408 14.21337891 88.13427734 C14.23757241 90.89945252 14.24897036 93.664426 14.2578125 96.4296875 C14.26813507 97.2943161 14.27845764 98.1589447 14.28909302 99.04977417 C14.28949106 101.15953521 14.18515243 103.26880718 14.0625 105.375 C12.0625 107.375 12.0625 107.375 9.44873047 107.60205078 C7.8305542 107.58634033 7.8305542 107.58634033 6.1796875 107.5703125 C4.42978516 107.56064453 4.42978516 107.56064453 2.64453125 107.55078125 C1.42121094 107.53402344 0.19789062 107.51726562 -1.0625 107.5 C-2.29355469 107.49097656 -3.52460937 107.48195313 -4.79296875 107.47265625 C-7.84133815 107.44902548 -10.88932382 107.41608054 -13.9375 107.375 C-13.9375 106.715 -13.9375 106.055 -13.9375 105.375 C-14.5975 105.375 -15.2575 105.375 -15.9375 105.375 C-15.9375 92.175 -15.9375 78.975 -15.9375 65.375 C-21.2175 65.375 -26.4975 65.375 -31.9375 65.375 C-35.9375 62.375 -35.9375 62.375 -36.4453125 59.66796875 C-35.78123547 55.3616846 -34.05033336 52.37777328 -31.8125 48.6875 C-31.03803422 47.37169844 -30.26461947 46.05527777 -29.4921875 44.73828125 C-29.08250732 44.04508789 -28.67282715 43.35189453 -28.25073242 42.63769531 C-24.55246104 36.26558541 -21.12449281 29.73998562 -17.68359375 23.2265625 C-17.13896484 22.20175781 -16.59433594 21.17695313 -16.03320312 20.12109375 C-14.91715788 18.02045735 -13.80789733 15.91620378 -12.70507812 13.80859375 C-5.71821687 0.72998513 -5.71821687 0.72998513 0 0 Z M-1.9375 6.375 C-2.36981934 7.1592334 -2.80213867 7.9434668 -3.24755859 8.75146484 C-8.14121233 17.62762987 -13.03786654 26.50213436 -17.9375 35.375 C-18.50082031 36.39529297 -19.06414063 37.41558594 -19.64453125 38.46679688 C-21.03228442 40.97873769 -22.42189148 43.48963909 -23.8125 46 C-24.21001465 46.71978027 -24.6075293 47.43956055 -25.01708984 48.18115234 C-26.57336605 50.98631776 -28.15680927 53.7039639 -29.9375 56.375 C-29.9375 57.365 -29.9375 58.355 -29.9375 59.375 C-23.6675 59.375 -17.3975 59.375 -10.9375 59.375 C-10.9375 73.565 -10.9375 87.755 -10.9375 102.375 C-4.3375 102.375 2.2625 102.375 9.0625 102.375 C9.0625 88.185 9.0625 73.995 9.0625 59.375 C15.3325 59.375 21.6025 59.375 28.0625 59.375 C27.24581295 55.29156475 26.77186962 53.47412845 24.76953125 50.1171875 C24.30732178 49.3327124 23.8451123 48.5482373 23.36889648 47.73999023 C22.87591064 46.91829346 22.3829248 46.09659668 21.875 45.25 C20.86101271 43.53051748 19.84798375 41.81046944 18.8359375 40.08984375 C18.35092773 39.2685498 17.86591797 38.44725586 17.36621094 37.60107422 C15.38983135 34.22642457 13.52864732 30.79494192 11.67578125 27.3515625 C9.37822053 23.11247952 7.03145559 18.90106353 4.6875 14.6875 C4.23366943 13.87144287 3.77983887 13.05538574 3.31225586 12.21459961 C2.22935535 10.2678705 1.14611695 8.32133038 0.0625 6.375 C-0.5975 6.375 -1.2575 6.375 -1.9375 6.375 Z " fill="#070403" transform="translate(64.9375,9.625)"/>
<path d="M0 0 C6.6 0.33 13.2 0.66 20 1 C20 1.33 20 1.66 20 2 C18.02 2 16.04 2 14 2 C14 2.66 14 3.32 14 4 C10.04 4 6.08 4 2 4 C2 3.34 2 2.68 2 2 C1.34 2 0.68 2 0 2 C0 1.34 0 0.68 0 0 Z " fill="#372314" transform="translate(34,68)"/>
</svg>
