<?xml version="1.0" encoding="UTF-8"?>
<svg version="1.1" xmlns="http://www.w3.org/2000/svg" width="128" height="128">
<path d="M0 0 C3.125 0.5625 3.125 0.5625 5.125 2.5625 C5.125 3.8825 5.125 5.2025 5.125 6.5625 C6.24261719 6.45615234 6.24261719 6.45615234 7.3828125 6.34765625 C10.84079932 6.61858114 11.61491943 7.54307965 14 10 C22.90609274 18.3467018 34.09598623 23.75789617 45.02172852 29 C47.75833179 30.32014267 49.9591696 31.3966696 52.125 33.5625 C53.13033284 40.11674786 51.63825089 46.28925826 49.8984375 52.578125 C49.18907252 55.31527066 48.75646825 57.95256614 48.375 60.75 C47.47630345 65.98855595 45.67677921 70.72108801 43.6875 75.625 C43.38682617 76.37612061 43.08615234 77.12724121 42.77636719 77.90112305 C41.2558323 81.51673662 40.45790383 83.34056411 37.125 85.5625 C35.805 85.5625 34.485 85.5625 33.125 85.5625 C31.59990103 87.27096775 31.59990103 87.27096775 30.375 89.5625 C25.60910077 97.16638445 19.79505769 103.59866888 11.125 106.5625 C2.94650309 108.30545836 -6.42355641 108.28226831 -13.84765625 104.03125 C-29.76845234 92.49710871 -37.9841297 73.94079882 -42.22265625 55.28125 C-42.84630793 52.68207893 -43.62122872 50.21028836 -44.5 47.6875 C-46.24338974 42.58511851 -46.95411227 37.75847705 -47.1875 32.375 C-47.22488281 31.53582031 -47.26226562 30.69664063 -47.30078125 29.83203125 C-46.875 27.5625 -46.875 27.5625 -45.32421875 25.9921875 C-42.08899835 24.10368564 -38.76867536 22.45322378 -35.375 20.875 C-34.71113281 20.55466797 -34.04726563 20.23433594 -33.36328125 19.90429688 C-29.89236216 18.27968505 -27.7749004 17.5625 -23.875 17.5625 C-23.545 16.5725 -23.215 15.5825 -22.875 14.5625 C-20.65234375 12.984375 -20.65234375 12.984375 -17.8125 11.3125 C-14.02412369 9.01398966 -10.80581671 6.70583033 -7.625 3.625 C-4.75475591 0.99098999 -4.06910302 0.59067624 0 0 Z " fill="#070800" transform="translate(60.875,9.4375)"/>
<path d="M0 0 C11.22 0 22.44 0 34 0 C34 15.51 34 31.02 34 47 C24.43776957 45.40629493 18.7045409 40.62786884 12.9140625 32.96875 C7.06647117 23.89901651 0 10.8411299 0 0 Z " fill="#F6FE5B" transform="translate(25,64)"/>
<path d="M0 0 C3.65913688 2.43942459 7.24731138 4.8774226 10.8125 7.4375 C19.96690163 13.83471538 29.87721817 18.37206153 40 23 C39.88260541 24.47978969 39.75553868 25.95881184 39.625 27.4375 C39.55539063 28.26121094 39.48578125 29.08492187 39.4140625 29.93359375 C38.86516499 33.99854231 37.88981413 37.99583641 37 42 C24.79 42 12.58 42 0 42 C0 28.14 0 14.28 0 0 Z " fill="#F5FD59" transform="translate(68,22)"/>
<path d="M0 0 C0.66 0 1.32 0 2 0 C3.48046875 1.50390625 3.48046875 1.50390625 5.1875 3.5625 C7.53279758 6.3253868 9.90829405 8.96679757 12.5 11.5 C22.38839286 21.25446429 22.38839286 21.25446429 25 27 C14.26621963 41.75084908 14.26621963 41.75084908 8 45 C5.36 45.33 2.72 45.66 0 46 C0 30.82 0 15.64 0 0 Z " fill="#F0F756" transform="translate(65,65)"/>
<path d="M0 0 C1.67578125 1.6015625 1.67578125 1.6015625 3.3125 3.625 C5.61097978 6.37925509 7.93159879 8.99508736 10.5 11.5 C14.18833327 15.13815186 17.87105996 18.86295162 21 23 C21 23.66 21 24.32 21 25 C9.12 25 -2.76 25 -15 25 C-18.375 14.875 -18.375 14.875 -18.6875 10.4375 C-18.75324219 9.59058594 -18.81898437 8.74367188 -18.88671875 7.87109375 C-18.92410156 7.25363281 -18.96148438 6.63617188 -19 6 C-16.34143629 4.64739741 -13.67797254 3.31319144 -11 2 C-10.35675781 1.6803125 -9.71351562 1.360625 -9.05078125 1.03125 C-5.58221901 -0.59393318 -3.59556915 -1.43682588 0 0 Z " fill="#F4FC5A" transform="translate(38,34)"/>
<path d="M0 0 C0 11.22 0 22.44 0 34 C-4.44995099 30.1857563 -8.71399787 26.4668442 -12.875 22.375 C-13.82117187 21.45460938 -14.76734375 20.53421875 -15.7421875 19.5859375 C-17.81744408 17.20908654 -18.66831413 16.07169955 -19 13 C-18.28714844 12.56429688 -17.57429688 12.12859375 -16.83984375 11.6796875 C-13.38489033 9.53138538 -3.5685021 0 0 0 Z " fill="#F4FC54" transform="translate(61,15)"/>
<path d="M0 0 C9.24 0 18.48 0 28 0 C27.16818874 4.99086753 25.97196287 8.85292244 23.9375 13.375 C23.65583984 14.01566406 23.37417969 14.65632813 23.08398438 15.31640625 C22.39540579 16.88029659 21.69855289 18.44053941 21 20 C18 20 18 20 16.00708008 18.37939453 C15.26868896 17.63802246 14.53029785 16.89665039 13.76953125 16.1328125 C12.96708984 15.32972656 12.16464844 14.52664062 11.33789062 13.69921875 C10.50451172 12.84972656 9.67113281 12.00023438 8.8125 11.125 C7.96751953 10.28324219 7.12253906 9.44148438 6.25195312 8.57421875 C0 2.26675999 0 2.26675999 0 0 Z " fill="#F6FE5A" transform="translate(76,68)"/>
<path d="M0 0 C1.32 0.33 2.64 0.66 4 1 C4 3.64 4 6.28 4 9 C14.89 8.67 25.78 8.34 37 8 C37.66 9.32 38.32 10.64 39 12 C27.12 12 15.24 12 3 12 C0 3 0 3 0 0 Z " fill="#DAE447" transform="translate(20,47)"/>
<path d="M0 0 C9.24 0 18.48 0 28 0 C27.2817669 4.3093986 26.69268808 7.16324035 25 11 C24.67 11 24.34 11 24 11 C24 8.03 24 5.06 24 2 C17.4 2 10.8 2 4 2 C4 2.66 4 3.32 4 4 C5.32 4 6.64 4 8 4 C8 5.65 8 7.3 8 9 C6.84775972 8.07038578 5.70340824 7.1309875 4.5625 6.1875 C3.60537109 5.40439453 3.60537109 5.40439453 2.62890625 4.60546875 C1 3 1 3 0 0 Z " fill="#F7FF56" transform="translate(76,68)"/>
<path d="M0 0 C1.67180274 0.94934513 3.33733936 1.90973313 5 2.875 C5.928125 3.40867187 6.85625 3.94234375 7.8125 4.4921875 C8.8953125 5.23855469 8.8953125 5.23855469 10 6 C10 6.66 10 7.32 10 8 C8.02 8 6.04 8 4 8 C4 6.68 4 5.36 4 4 C2.68 4 1.36 4 0 4 C0 2.68 0 1.36 0 0 Z " fill="#EFF748" transform="translate(76,28)"/>
<path d="M0 0 C1.32 0 2.64 0 4 0 C4 1.32 4 2.64 4 4 C5.32 4 6.64 4 8 4 C8 5.65 8 7.3 8 9 C6.84775972 8.07038578 5.70340824 7.1309875 4.5625 6.1875 C3.60537109 5.40439453 3.60537109 5.40439453 2.62890625 4.60546875 C1 3 1 3 0 0 Z " fill="#F5FE4A" transform="translate(84,76)"/>
<path d="M0 0 C1.32 0 2.64 0 4 0 C4 1.32 4 2.64 4 4 C5.32 4 6.64 4 8 4 C8 5.65 8 7.3 8 9 C6.84775972 8.07038578 5.70340824 7.1309875 4.5625 6.1875 C3.60537109 5.40439453 3.60537109 5.40439453 2.62890625 4.60546875 C1 3 1 3 0 0 Z " fill="#E5E949" transform="translate(76,68)"/>
<path d="M0 0 C1.32 0 2.64 0 4 0 C3.44894091 3.9492568 2.61064629 7.34920174 1 11 C0.67 11 0.34 11 0 11 C0 7.37 0 3.74 0 0 Z " fill="#DEE63F" transform="translate(100,68)"/>
<path d="M0 0 C0.66 0.33 1.32 0.66 2 1 C1.34 2.65 0.68 4.3 0 6 C-1.65 6 -3.3 6 -5 6 C-5 5.34 -5 4.68 -5 4 C-3.37373596 2.61767557 -1.7074998 1.28062485 0 0 Z " fill="#EBF34A" transform="translate(56,18)"/>
<path d="M0 0 C1.32 0 2.64 0 4 0 C4 2.64 4 5.28 4 8 C1.84622436 5.37801226 0.59927826 3.35595828 0 0 Z " fill="#F2FA4C" transform="translate(32,84)"/>
<path d="M0 0 C2.64 0 5.28 0 8 0 C5.61426621 1.89213369 3.92824652 3.02391783 1 4 C0.67 2.68 0.34 1.36 0 0 Z " fill="#181804" transform="translate(28,32)"/>
<path d="M0 0 C2.64 0 5.28 0 8 0 C7.67 0.66 7.34 1.32 7 2 C4.67843403 2.40729228 2.3431213 2.74438677 0 3 C0 2.01 0 1.02 0 0 Z " fill="#F1F94B" transform="translate(66,108)"/>
<path d="M0 0 C2.64 0 5.28 0 8 0 C8 0.99 8 1.98 8 3 C2.25 2.25 2.25 2.25 0 0 Z " fill="#F2FA41" transform="translate(51,108)"/>
<path d="M0 0 C0.99 0 1.98 0 3 0 C2.67 2.31 2.34 4.62 2 7 C1.34 7 0.68 7 0 7 C0 4.69 0 2.38 0 0 Z " fill="#E8F04A" transform="translate(104,52)"/>
<path d="M0 0 C0.86625 0.3403125 0.86625 0.3403125 1.75 0.6875 C1.75 1.3475 1.75 2.0075 1.75 2.6875 C-0.89 2.6875 -3.53 2.6875 -6.25 2.6875 C-2.80384615 -0.38942308 -2.80384615 -0.38942308 0 0 Z " fill="#ECF349" transform="translate(36.25,33.3125)"/>
</svg>
